<?xml version="1.0" encoding="UTF-8" standalone="no"?>
<!-- Created with Inkscape (http://www.inkscape.org/) -->

<svg
   width="60.198444mm"
   height="96.29628mm"
   viewBox="0 0 49.702902 127.18334"
   version="1.1"
   id="svg5"
   xml:space="preserve"
   inkscape:version="1.2 (dc2aedaf03, 2022-05-15)"
   sodipodi:docname="favicon.svg"
   xmlns:inkscape="http://www.inkscape.org/namespaces/inkscape"
   xmlns:sodipodi="http://sodipodi.sourceforge.net/DTD/sodipodi-0.dtd"
   xmlns="http://www.w3.org/2000/svg"
   xmlns:svg="http://www.w3.org/2000/svg"><sodipodi:namedview
     id="namedview7"
     pagecolor="#ffffff"
     bordercolor="#666666"
     borderopacity="1.0"
     inkscape:showpageshadow="2"
     inkscape:pageopacity="0.0"
     inkscape:pagecheckerboard="0"
     inkscape:deskcolor="#d1d1d1"
     inkscape:document-units="mm"
     showgrid="false"
     inkscape:zoom="1.829812"
     inkscape:cx="17.488135"
     inkscape:cy="128.15524"
     inkscape:window-width="1862"
     inkscape:window-height="1414"
     inkscape:window-x="595"
     inkscape:window-y="362"
     inkscape:window-maximized="0"
     inkscape:current-layer="layer1" /><defs
     id="defs2" /><g
     inkscape:label="Layer 1"
     inkscape:groupmode="layer"
     id="layer1"
     transform="translate(-63.038208,-164.95082)"><path
       style="fill:#000000;stroke-width:0.264583"
       d="m 75.867372,291.79928 c -28.95039,-4.07823 -37.95192,-41.70706 -13.87112,-57.98503 l 1.91823,-1.29667 0.005,-26.6487 c 0.005,-29.52431 -0.0429,-28.6294 1.72843,-32.21437 5.7057,-11.54744 22.62866,-11.62103 28.25847,-0.12288 1.79897,3.67416 1.7488,2.74538 1.7539,32.46954 l 0.005,26.78099 2.02298,1.3651 c 27.337478,18.44713 10.762088,62.24185 -21.82009,57.65202 z m 8.2832,-8.07531 c 22.929418,-3.99856 26.709938,-36.67823 5.25066,-45.38791 l -1.40079,-0.56854 -0.0706,-29.67055 -0.0706,-29.67055 -0.60629,-1.13546 c -3.21497,-6.02097 -11.45016,-6.01068 -14.67177,0.0183 l -0.59694,1.11712 -0.0706,29.53376 -0.0706,29.53376 -1.37972,0.57339 c -25.84235,10.73959 -13.93088,50.47283 13.68722,45.65664 z m -7.88822,-3.98714 c -20.42437,-3.69055 -21.71196,-32.80583 -1.70685,-38.5958 l 1.5129,-0.43787 0.0746,-14.78119 c 0.073,-14.45667 0.0866,-14.79722 0.62012,-15.5116 1.36278,-1.82471 3.4444,-2.29156 5.24786,-1.17696 1.75478,1.08451 1.74725,1.01093 1.74725,17.06917 v 14.39566 l 1.52135,0.44033 c 23.901948,6.91798 15.467298,43.02246 -9.01723,38.59826 z m 33.761248,-47.9873 c -2.79692,-1.26965 -2.92648,-4.74947 -0.25065,-6.73212 1.14926,-0.85154 14.81313,-0.85838 15.95214,-0.008 2.62741,1.96165 2.54187,5.27269 -0.17218,6.66438 -1.6607,0.85156 -13.69099,0.91022 -15.52931,0.0757 z m -3.96875,-15.875 c -2.91534,-1.3234 -2.87888,-5.46573 0.0606,-6.88871 1.61779,-0.78316 17.36139,-0.80383 19.07622,-0.0251 3.06835,1.39347 3.27698,5.34291 0.36121,6.83804 -1.67256,0.85764 -17.63897,0.91964 -19.49806,0.0757 z m 0,-15.875 c -2.96553,-1.34618 -2.91957,-5.39959 0.0781,-6.88489 1.58815,-0.78692 17.33708,-0.81077 19.05878,-0.0289 3.04161,1.38133 3.23379,5.58193 0.31597,6.9062 -1.72524,0.78301 -17.73088,0.78923 -19.45282,0.008 z m -0.0663,-15.81354 c -2.82877,-1.43748 -2.82632,-5.43263 0.004,-6.88405 1.44585,-0.7414 17.44486,-0.93747 19.1275,-0.23441 2.80267,1.17103 3.31218,5.11407 0.88459,6.84565 -1.18078,0.84223 -18.43304,1.07737 -20.01631,0.27281 z"
       id="path908" /></g></svg>
