<?xml version="1.0" encoding="UTF-8"?>
<!-- Created with Inkscape (http://www.inkscape.org/) -->
<svg width="60.198mm" height="96.296mm" version="1.1" viewBox="0 0 49.703 127.18" xml:space="preserve" xmlns="http://www.w3.org/2000/svg"><g transform="translate(-63.038 -164.95)"><path d="m75.867 291.8c-28.95-4.0782-37.952-41.707-13.871-57.985l1.9182-1.2967 5e-3 -26.649c5e-3 -29.524-0.0429-28.629 1.7284-32.214 5.7057-11.547 22.629-11.621 28.258-0.12288 1.799 3.6742 1.7488 2.7454 1.7539 32.47l5e-3 26.781 2.023 1.3651c27.337 18.447 10.762 62.242-21.82 57.652zm8.2832-8.0753c22.929-3.9986 26.71-36.678 5.2507-45.388l-1.4008-0.56854-0.1412-59.341-0.60629-1.1355c-3.215-6.021-11.45-6.0107-14.672 0.0183l-0.59694 1.1171-0.1412 59.068-1.3797 0.57339c-25.842 10.74-13.931 50.473 13.687 45.657zm-7.8882-3.9871c-20.424-3.6906-21.712-32.806-1.7068-38.596l1.5129-0.43787 0.0746-14.781c0.073-14.457 0.0866-14.797 0.62012-15.512 1.3628-1.8247 3.4444-2.2916 5.2479-1.177 1.7548 1.0845 1.7472 1.0109 1.7472 17.069v14.396l1.5214 0.44033c23.902 6.918 15.467 43.022-9.0172 38.598zm33.761-47.987c-2.7969-1.2696-2.9265-4.7495-0.25065-6.7321 1.1493-0.85154 14.813-0.85838 15.952-8e-3 2.6274 1.9616 2.5419 5.2727-0.17218 6.6644-1.6607 0.85156-13.691 0.91022-15.529 0.0757zm-3.9688-15.875c-2.9153-1.3234-2.8789-5.4657 0.0606-6.8887 1.6178-0.78316 17.361-0.80383 19.076-0.0251 3.0684 1.3935 3.277 5.3429 0.36121 6.838-1.6726 0.85764-17.639 0.91964-19.498 0.0757zm0-15.875c-2.9655-1.3462-2.9196-5.3996 0.0781-6.8849 1.5882-0.78692 17.337-0.81077 19.059-0.0289 3.0416 1.3813 3.2338 5.5819 0.31597 6.9062-1.7252 0.78301-17.731 0.78923-19.453 8e-3zm-0.0663-15.814c-2.8288-1.4375-2.8263-5.4326 4e-3 -6.884 1.4458-0.7414 17.445-0.93747 19.128-0.23441 2.8027 1.171 3.3122 5.1141 0.88459 6.8456-1.1808 0.84223-18.433 1.0774-20.016 0.27281z" stroke-width=".26458"/></g></svg>
